<svg width="70" height="70" viewBox="0 0 70 70" fill="none" xmlns="http://www.w3.org/2000/svg">
<circle cx="35" cy="35" r="35" fill="#383842"/>
<path d="M13.0779 51C12.7579 51 12.4859 50.904 12.2619 50.712C12.0699 50.488 11.9739 50.216 11.9739 49.896V27.144C11.9739 26.824 12.0699 26.568 12.2619 26.376C12.4859 26.152 12.7579 26.04 13.0779 26.04H15.3339C15.6539 26.04 15.9099 26.152 16.1019 26.376C16.3259 26.568 16.4379 26.824 16.4379 27.144V29.256C17.3659 28.072 18.4539 27.16 19.7019 26.52C20.9819 25.88 22.5659 25.56 24.4539 25.56C27.5259 25.56 29.9099 26.552 31.6059 28.536C33.3339 30.488 34.1979 33.096 34.1979 36.36V49.896C34.1979 50.216 34.0859 50.488 33.8619 50.712C33.6699 50.904 33.4139 51 33.0939 51H30.6939C30.3739 51 30.1019 50.904 29.8779 50.712C29.6859 50.488 29.5899 50.216 29.5899 49.896V36.6C29.5899 34.328 29.0299 32.568 27.9099 31.32C26.8219 30.072 25.2379 29.448 23.1579 29.448C21.1419 29.448 19.5419 30.088 18.3579 31.368C17.1739 32.616 16.5819 34.36 16.5819 36.6V49.896C16.5819 50.216 16.4699 50.488 16.2459 50.712C16.0539 50.904 15.7979 51 15.4779 51H13.0779ZM49.7233 51.48C47.4833 51.48 45.5953 51.128 44.0593 50.424C42.5553 49.688 41.4193 48.856 40.6513 47.928C39.9153 47 39.5473 46.232 39.5473 45.624C39.5473 45.304 39.6593 45.064 39.8833 44.904C40.1393 44.712 40.3953 44.616 40.6513 44.616H42.8113C43.1313 44.616 43.4193 44.776 43.6753 45.096C44.4433 45.992 45.2753 46.696 46.1713 47.208C47.0673 47.72 48.2673 47.976 49.7713 47.976C51.4353 47.976 52.7793 47.656 53.8033 47.016C54.8593 46.344 55.3873 45.432 55.3873 44.28C55.3873 43.512 55.1633 42.888 54.7153 42.408C54.2993 41.896 53.5633 41.464 52.5073 41.112C51.4833 40.728 49.9473 40.312 47.8993 39.864C45.1153 39.256 43.1313 38.376 41.9473 37.224C40.7953 36.072 40.2193 34.584 40.2193 32.76C40.2193 31.544 40.5713 30.392 41.2753 29.304C42.0113 28.184 43.0673 27.288 44.4433 26.616C45.8513 25.912 47.5313 25.56 49.4833 25.56C51.5313 25.56 53.2753 25.896 54.7153 26.568C56.1553 27.24 57.2273 28.04 57.9313 28.968C58.6673 29.864 59.0353 30.616 59.0353 31.224C59.0353 31.512 58.9233 31.752 58.6993 31.944C58.5073 32.136 58.2673 32.232 57.9793 32.232H55.9633C55.5793 32.232 55.2593 32.072 55.0033 31.752C54.4913 31.144 54.0433 30.68 53.6593 30.36C53.3073 30.008 52.7793 29.704 52.0753 29.448C51.4033 29.192 50.5393 29.064 49.4833 29.064C47.9473 29.064 46.7633 29.4 45.9313 30.072C45.0993 30.712 44.6833 31.56 44.6833 32.616C44.6833 33.288 44.8593 33.864 45.2113 34.344C45.5633 34.792 46.2353 35.208 47.2273 35.592C48.2513 35.976 49.7233 36.376 51.6432 36.792C54.6833 37.432 56.8273 38.36 58.0753 39.576C59.3553 40.76 59.9953 42.28 59.9953 44.136C59.9953 45.512 59.5953 46.76 58.7953 47.88C57.9953 49 56.8113 49.88 55.2433 50.52C53.7073 51.16 51.8673 51.48 49.7233 51.48Z" fill="white"/>
</svg>
